<svg width="56" height="56" viewBox="0 0 56 56" fill="none" xmlns="http://www.w3.org/2000/svg">
<circle cx="28" cy="28" r="28" fill="#50D87D"/>
<path fill-rule="evenodd" clip-rule="evenodd" d="M32.5055 19.8076L34.532 17.781C35.0238 17.313 35.679 17.0553 36.3581 17.0627C37.0397 17.0701 37.6913 17.3442 38.1734 17.8261C38.6555 18.308 38.9297 18.9595 38.9373 19.6411C38.9449 20.3202 38.6873 20.9753 38.2195 21.4673L36.1922 23.4943L32.5055 19.8076ZM31.4743 20.8388L18.5865 33.7273C18.3244 33.9895 18.1456 34.3234 18.0729 34.6869L17.2628 38.7371L21.3119 37.9271C21.6755 37.8544 22.0094 37.6757 22.2715 37.4135L35.161 24.5255L31.4743 20.8388ZM33.5181 16.7325L17.5554 32.6961C17.0896 33.1618 16.7721 33.755 16.6429 34.4009L15.6183 39.5237C15.5705 39.7628 15.6453 40.0099 15.8177 40.1823C15.9901 40.3547 16.2373 40.4295 16.4763 40.3817L21.5979 39.3571C22.2438 39.228 22.837 38.9104 23.3028 38.4447L39.2569 22.4926L39.2681 22.4808C40.0028 21.7127 40.4075 20.6875 40.3956 19.6248C40.3836 18.562 39.9561 17.5462 39.2044 16.7947C38.4528 16.0433 37.4368 15.616 36.374 15.6044C35.3112 15.5928 34.286 15.9976 33.5181 16.7325Z" fill="white"/>
</svg>

